<svg xmlns="http://www.w3.org/2000/svg" viewBox="0 0 149.52 68.88"><defs><style>.cls-1{fill:#fff;}.cls-2{fill:#2e2a4d;}.cls-3{fill:#242451;}.cls-4{fill:#cd9b33;}.cls-5{fill:#292754;}.cls-6{fill:#272652;}.cls-7{fill:#2a2854;}.cls-8{fill:#282753;}.cls-9{fill:#2e2a56;}.cls-10{fill:#2b2855;}.cls-11{fill:#2c2955;}.cls-12{fill:#302c58;}.cls-13{fill:#322d59;}.cls-14{fill:#302b57;}.cls-15{fill:#332d59;}.cls-16{fill:#312c58;}.cls-17{fill:#342e5a;}.cls-18{fill:#38315d;}.cls-19{fill:#37315c;}.cls-20{fill:#beb9cb;}.cls-21{fill:#f9f8fa;}.cls-22{fill:#48416a;}.cls-23{fill:#534b73;}.cls-24{fill:#3d3661;}.cls-25{fill:#3e3762;}.cls-26{fill:#6d6387;}.cls-27{fill:#39335e;}.cls-28{fill:#413a64;}.cls-29{fill:#e8e5ed;}.cls-30{fill:#786f90;}.cls-31{fill:#b1abc0;}.cls-32{fill:#bdb8ca;}.cls-33{fill:#6b6286;}.cls-34{fill:#88809e;}.cls-35{fill:#fdfdfd;}.cls-36{fill:#f1eff4;}.cls-37{fill:#f8f7fa;}.cls-38{fill:#f8f8fa;}.cls-39{fill:#fbfbfc;}.cls-40{fill:#f5f4f7;}.cls-41{fill:#dddae4;}.cls-42{fill:#f7f7f9;}.cls-43{fill:#fcfbfd;}</style></defs><g id="Capa_2" data-name="Capa 2"><g id="Capa_1-2" data-name="Capa 1"><path class="cls-1" d="M74.76,0q36.88,0,73.78,0c.82,0,1,.16,1,1q0,33.46,0,66.92c0,.82-.16,1-1,1q-73.78,0-147.56,0c-.82,0-1-.16-1-1Q0,34.44,0,1C0,.16.16,0,1,0Q37.86,0,74.76,0Z"/><path class="cls-2" d="M88.25,15.92c-1.32.44-2.62.88-3.92,1.3L73.78,20.67a2.83,2.83,0,0,1-1.75,0L45.38,13.19c-.67-.19-1.64-.25-1.7-1.06s1-1,1.65-1.23l27.18-9a3.73,3.73,0,0,1,2.22-.07c8.77,2.45,17.55,4.86,26.33,7.29a8.78,8.78,0,0,1,1.68.58c.83.43.85.93.05,1.36a12.68,12.68,0,0,1-2,.76c-2.37.8-4.75,1.59-7.12,2.41a3,3,0,0,1-2.08,0c-5.49-1.86-11-3.69-16.51-5.53a3.89,3.89,0,0,0-1.75-.32,1.21,1.21,0,0,0-1.08,1,1,1,0,0,0,.61,1.17,8.94,8.94,0,0,0,1.33.52c4.38,1.44,8.76,2.87,13.13,4.32C87.64,15.46,88,15.45,88.25,15.92Z"/><path class="cls-2" d="M54,23.38c0-1.19.05-2.39,0-3.58-.06-.91.24-1,1-.76,5.39,1.55,10.8,3.05,16.19,4.59a5,5,0,0,0,3.13,0c5.32-1.79,10.67-3.47,16-5.23.92-.31,1.29-.25,1.2.85-.1,1.32,0,2.59-1,3.79a3.19,3.19,0,0,0-.07,3.62c.63,1.18.49,1.65-.76,2.28a31.29,31.29,0,0,1-4.17,1.78,41.44,41.44,0,0,1-29.22-.91c-2-.82-2.5-1.53-2.48-3.66,0-.92,0-1.83,0-2.75Z"/><path class="cls-3" d="M16.54,29c1.36.12,3.16-.24,4.94.21,2.93.74,4.56,2.41,5,5.35a12.15,12.15,0,0,1-.4,6.13c-1.49,3.91-4.44,5.89-8.55,6.19a27,27,0,0,1-3.71,0c-.71,0-1,.17-1.09.85-.38,2.31-.86,4.61-1.22,6.92-.17,1.13-.58,1.74-1.84,1.58a12.72,12.72,0,0,0-2.39,0c-1,.07-1.37-.38-1.25-1.35.28-2.45.5-4.91.81-7.36.59-4.73,1.22-9.46,1.84-14.2a7.69,7.69,0,0,1,.65-2.52A2.9,2.9,0,0,1,12.16,29C13.48,29,14.8,29,16.54,29Z"/><path class="cls-3" d="M121.21,55.66a9.76,9.76,0,0,1-6.78,1.24,4.68,4.68,0,0,1-4-4.42,55.12,55.12,0,0,1,.18-7.27,9.85,9.85,0,0,1,.82-3c1.87-4.24,6-5.85,10.28-4,.78.33,1,.24,1.09-.59.23-2.21.56-4.41.77-6.63a2,2,0,0,1,1.55-1.89,10.14,10.14,0,0,1,3.56-.1c.69,0,.71.75.64,1.33-.35,3-.69,6-1,9-.6,5.13-1.19,10.27-1.82,15.4-.08.63.22,1.75-.72,1.73-1.13,0-2.61.81-3.42-.8-.19-.39-.43-.75-.64-1.13-.1-.07-.17-.19-.26-.23s0,.07,0,.11C121.25,54.82,121.51,55.28,121.21,55.66Z"/><path class="cls-3" d="M102.56,54.28c.17,1-.34,1.5-1.21,1.89a9.83,9.83,0,0,1-6.07.7,4.66,4.66,0,0,1-3.9-4.27A18.84,18.84,0,0,1,93,41.32a6.49,6.49,0,0,1,2.91-3.06c.37-.19.69-.32,1.05.07a3.22,3.22,0,0,0,4.69.38,1.81,1.81,0,0,1,2.69.36c.54.56.81.56,1.27-.08a2.71,2.71,0,0,1,3.25-.68c.53.3.44.82.39,1.28q-.51,4.68-1,9.36c-.23,1.94-.43,3.87-.73,5.8-.09.59.15,1.54-.85,1.6s-2.36.4-3.18-.78a10.66,10.66,0,0,1-.67-1.25c-.39-.26-.23-.78-.5-1.09a12.1,12.1,0,0,0-.31-1.22,3.45,3.45,0,0,1-.2-1.31c.16-1.78.43-3.54.6-5.32.08-.85.41-1.78-.67-2.28a2.68,2.68,0,0,0-3.12.82,6.43,6.43,0,0,0-1,2.78,7.38,7.38,0,0,0-.21,1.41c-.07,2.44.19,3.69,3.25,3.44.44.05.92,0,1.26.37.15.46.28.91.41,1.38C102.51,53.59,102.37,54,102.56,54.28Z"/><path class="cls-3" d="M68,37.52a7.3,7.3,0,0,1,4.49,1.35c.58.43,1,.53,1.47-.16.31-.45,3.1-.69,3.5-.37s.21.49.18.77c-.35,3.28-.62,6.57-1.07,9.83-.3,2.1-1.82,3.5-3.41,4.72-.51.39-.83,1.54-1.87.83-.09-.07-.1-.06-.13.06-.6,1.92-2.42,1.9-3.88,2.3a6.64,6.64,0,0,1-5.2-.62,4.35,4.35,0,0,1-2.18-3.39,26.58,26.58,0,0,1,.51-9.24C61.39,39.6,64.14,37.49,68,37.52Z"/><path class="cls-3" d="M136.86,56.46c-.1.56-.48.63-1,.62-4.36-.14-6.67-2.48-6.75-6.82a20.7,20.7,0,0,1,1-6.81,7.73,7.73,0,0,1,6.73-5.78,12.08,12.08,0,0,1,4.28.09c3.14.69,4.72,2.37,5,5.53a18.5,18.5,0,0,1-1.34,8.88,7.6,7.6,0,0,1-6.83,4.8c-.31,0-.56.05-.7-.29-.34-1.26,0-2.56-.17-3.83a1,1,0,0,1,.46-.92c1.75-1,2-2.79,2.26-4.52a13.57,13.57,0,0,0,0-2.85,1.54,1.54,0,0,0-1.18-1.6,1.84,1.84,0,0,0-2,.67,5.21,5.21,0,0,0-.8,1.84,17.07,17.07,0,0,0-.42,3.9,2.65,2.65,0,0,0,1.05,2.41A1.33,1.33,0,0,1,137,53,11.46,11.46,0,0,1,136.86,56.46Z"/><path class="cls-3" d="M42.42,45.22a16,16,0,0,1-1.36,7.08,7.25,7.25,0,0,1-6.45,4.59,13.06,13.06,0,0,1-4.78-.2,5.37,5.37,0,0,1-4.11-4.47A16.43,16.43,0,0,1,27.11,42c1.29-2.61,3.76-3.7,6.48-4.14a10.69,10.69,0,0,1,4.85.42,5.13,5.13,0,0,1,4,5.17C42.44,44,42.42,44.62,42.42,45.22Z"/><path class="cls-3" d="M43.43,51a32.68,32.68,0,0,0,5.43,1.43,7.19,7.19,0,0,0,2.49-.2,1.18,1.18,0,0,0,1-1.24,1.21,1.21,0,0,0-1.18-1.26c-1.14-.17-2.3-.28-3.42-.54-2.91-.67-4-2.41-3.54-5.35.67-4,2.71-5.86,7.05-6.28a17.21,17.21,0,0,1,6.06.42c.89.22,1.3.61,1.12,1.58a26.79,26.79,0,0,0-.3,2.84c-.06.76-.32.93-1.06.63a12.65,12.65,0,0,0-5.52-.77,2,2,0,0,0-1.5.62c-.66.75-.3,1.62.73,1.82,1.33.24,2.69.39,4,.74,2.35.62,3.2,1.84,3.16,4.24-.06,4.06-2,6.35-6.15,7.11a16.33,16.33,0,0,1-7.91-.53c-.79-.24-1.15-.61-1-1.45C43.11,53.6,43.26,52.33,43.43,51Z"/><path class="cls-3" d="M82.44,41.38a9.5,9.5,0,0,1,8.08-3.84c1,0,1.37.33,1.1,1.38a12.56,12.56,0,0,0-.3,2.6c0,.82-.37,1.07-1.13.9a4.29,4.29,0,0,0-.72,0c-3.1,0-3.85.68-4.22,3.72s-.82,6-1.21,9.09c-.11.85-.48,1.26-1.4,1.21-1.07,0-2.15,0-3.23,0-.72,0-1-.29-.89-1q.48-4,.89-8c.2-1.95,1.51-3.38,2.32-5A1.27,1.27,0,0,1,82.44,41.38Z"/><path class="cls-4" d="M93.25,15.07l2.66-.78c.58-.17.79.27,1,.6a8,8,0,0,1,1.54,5.16,1.71,1.71,0,0,0,.82,1.77,2.31,2.31,0,0,1,.3,3.72c-1,.84-.81,1.64-.53,2.63a18.53,18.53,0,0,0,4.26,7.5c.67.73.76,1.2-.21,1.66a11.14,11.14,0,0,0-1.35.76c-2.22,1.39-3.55.81-5.26-1.42-1.54-2-1.49-4.46-1.29-6.88.09-1,.19-2.05.3-3.08.06-.51-.3-.77-.57-1.11-.73-.9-1-2.08-.16-2.83,1.49-1.36.91-2.81.58-4.28A6.68,6.68,0,0,0,93.25,15.07Z"/><path class="cls-3" d="M59.43,60.41a16.09,16.09,0,0,0,7,1.1c2-.21,2.78-.88,3.24-2.75a2,2,0,0,1,.94-1.44,21.72,21.72,0,0,0,5-4.16,3.46,3.46,0,0,1,.5-.35c-.33,2.22-.56,4.31-1,6.37-.8,4.14-3.27,6.43-7.5,7a19.31,19.31,0,0,1-8-.65c-.46-.13-.85-.24-.78-.83C59.1,63.3,59.26,61.89,59.43,60.41Z"/><path class="cls-5" d="M9.11,66.37c-1.76,0-2.18-.54-1.72-2.1.26-.92.54-1.83.79-2.75.11-.39.27-.72.72-.58s.16.52.09.77c-.21.81-.47,1.6-.68,2.41-.14.57-.65,1.33.31,1.58s1.83.21,2.22-.85.63-2,.94-3.07a3.47,3.47,0,0,1,.29-.78.47.47,0,0,1,.54-.15c.29.06.22.27.16.46-.39,1.29-.68,2.62-1.19,3.86C11.14,66.24,10,66.27,9.11,66.37Z"/><path class="cls-6" d="M81.44,42.08c-.37.15-.51.87-1,.56s-.11-.74-.12-1.11a7.73,7.73,0,0,1,.11-1.18c.34-2.27.35-2.26,2.62-2.11.9.06,1.06.49.61,1.16s-1,1.3-1.56,1.94C82.07,41.77,81.8,42,81.44,42.08Z"/><path class="cls-7" d="M52.9,65c0-2.11,1.34-3.29,3.31-2.82.67.15.38-.43.52-.64s.13-1,.75-.83.07.73,0,1.08c-.15.73-.42,1.44-.63,2.17C56.24,66,56.24,66,54.2,66.09,53.45,66.11,52.85,65.89,52.9,65Z"/><path class="cls-7" d="M42.6,65.07c0-2.18,1.34-3.36,3.31-2.89.67.15.38-.43.52-.64s.13-1,.75-.83.07.73,0,1.08c-.15.73-.42,1.44-.63,2.17C45.94,66,45.94,66,43.9,66.09,43.15,66.11,42.54,65.9,42.6,65.07Z"/><path class="cls-7" d="M129.55,66.13c1-1.6,2-3.17,2.92-4.75a.84.84,0,0,1,.9-.41c.51,0,.38.45.41.71.14,1.26.26,2.52.34,3.79,0,.25.27.67-.26.75s-.52-.27-.58-.65.18-1-.56-.94-1.44-.34-1.87.57C130.62,65.68,130.53,66.45,129.55,66.13Z"/><path class="cls-5" d="M83.17,62.28a1.83,1.83,0,0,1-2,1.55c-1.25-.07-1.81.43-1.88,1.63,0,.38-.09.92-.67.74s-.07-.62,0-.88c.27-1.2.66-2.38.9-3.58.14-.68.46-.83,1.07-.78s1.12,0,1.67.07A1,1,0,0,1,83.17,62.28Z"/><path class="cls-8" d="M124.89,61c-.39.74-.9.57-1.27.52-1.24-.17-1.87.29-1.81,1.67h2.34c-.54.81-1.25.5-1.8.47-1.24-.05-1,.93-1.13,1.56-.14.89.64.38,1,.48s.87-.09,1.28.15a6.12,6.12,0,0,1-3.18.35c-.19-.2-.06-.45,0-.66.34-1.31.7-2.61,1.05-3.91.09-.34.15-.67.66-.64C122.94,61,123.85,61,124.89,61Z"/><path class="cls-9" d="M37.87,61.92a5.8,5.8,0,0,1,.69.17.69.69,0,0,1,.47.64.33.33,0,0,1-.26.34c-.33.08-.46-.08-.64-.35-.37-.55-.92-.37-1.37-.08s-.49.63,0,.9c.21.11.45.14.67.23.49.2,1.2.19,1.15,1s-.6,1-1.18,1.2a3,3,0,0,1-2,0A.65.65,0,0,1,35,65.2a.5.5,0,0,1,.24-.35c.35-.13.4.17.58.39a1.15,1.15,0,0,0,1.6.11c.49-.3.47-.7-.09-1-.07,0-.16,0-.23-.06-.6-.28-1.57-.11-1.52-1.15C35.6,62.45,36.57,61.91,37.87,61.92Z"/><path class="cls-10" d="M28.52,66c-1.8.29-2.4-.39-1.84-2.09a2.56,2.56,0,0,1,2.75-2,1,1,0,0,1,1,1.21c-.06.65-.33,1-1.05.94-.31,0-.63,0-.95,0-1.17,0-1.31.26-.85,1.44C27.81,65.84,28.43,65.34,28.52,66Z"/><path class="cls-10" d="M141.84,66.23c-.82,0-1.41-.21-1.45-1.16a2.52,2.52,0,0,1,2.45-2.67c.84,0,1.39.29,1.39,1.22A2.53,2.53,0,0,1,141.84,66.23Z"/><path class="cls-11" d="M116.9,63.59c0,.49-.24.83-.93.74a4.31,4.31,0,0,0-.72,0c-.38,0-.84-.11-.93.47,0,.32-.12.68.23.86a.84.84,0,0,0,1.13-.35c.18-.25.32-.71.67-.36s-.1.58-.32.78a1.62,1.62,0,0,1-2,.34c-.69-.39-.54-1.09-.38-1.71a2.3,2.3,0,0,1,2.24-1.95C116.58,62.44,117,62.74,116.9,63.59Z"/><path class="cls-12" d="M26,62.22c-.82,1.16-1.66,2.3-2.47,3.47a.78.78,0,0,1-.84.29c-.39,0-.33-.38-.36-.64-.11-.91-.21-1.81-.33-2.71,0-.3-.07-.57.34-.61s.45.19.47.51c.06.86.14,1.71.22,2.65,1.2-.93,1.32-2.68,2.75-3.22Z"/><path class="cls-11" d="M49.38,63.88c.33-.1.67-.2,1-.32s.77-.36.61-.85-.59-.3-.94-.27a.87.87,0,0,0-.42.18c-.26.2-.36.66-.83.47a.28.28,0,0,1-.11-.27,1.41,1.41,0,0,1,.87-.75A3,3,0,0,1,51,61.94c.69.06.94.41.83,1.13-.13.88-.77,1.61-.45,2.68.12.4-.82.24-1.23-.14a.39.39,0,0,1-.15-.28,1.16,1.16,0,0,1,.12-.45c.33-.56.1-.71-.46-.63C49.47,64.18,49.34,64.08,49.38,63.88Z"/><path class="cls-9" d="M99.1,66.24c-1,0-1.46-.46-1.32-1.44.21-1.48,1.13-2.43,2.35-2.4a1.08,1.08,0,0,1,1.09.58c.11.22.19.47-.08.61s-.39.06-.54-.24c-.4-.83-1-.49-1.42-.05a2.27,2.27,0,0,0-.48.94c-.15.47-.51,1,.1,1.39s1,0,1.31-.46c.17-.26.39-.51.64-.26s-.09.51-.24.69A1.67,1.67,0,0,1,99.1,66.24Z"/><path class="cls-11" d="M139.16,66.07c-1.45.31-1.54.23-1.2-1.06.14-.58.62-1.39.4-1.68-.72-.95.66-1.1.51-1.77,0-.15.24-.3.47-.23s.26.22.17.37c-.39.68.35.65.77,1-1.7.31-1.29,1.73-1.72,2.68C138.29,65.94,139.15,65.56,139.16,66.07Z"/><path class="cls-12" d="M111.64,62.7c.61-.25.42-.86.59-1.31.11-.3.25-.51.59-.4s.13.38.08.57c-.33,1.3-.74,2.59-1,3.91-.18.93-.61.84-1.22.49a.4.4,0,0,1-.12-.29A4.6,4.6,0,0,0,111.3,63,.38.38,0,0,1,111.64,62.7Z"/><path class="cls-12" d="M89.38,66c-.3,0-.56.47-.85.23s0-.58.08-.87c.31-1.19.62-2.38.94-3.57.08-.31,0-.84.54-.75s.12.57.17.86-.36.58.07.83a.41.41,0,0,1,.12.3,5.1,5.1,0,0,0-.73,2.64A.39.39,0,0,1,89.38,66Z"/><path class="cls-13" d="M125.21,66.23c-.31,0-.28-.2-.21-.48.4-1.45.77-2.9,1.14-4.35.08-.31.23-.52.58-.41s.16.37.11.56c-.35,1.38-.71,2.76-1.07,4.13C125.69,66,125.65,66.25,125.21,66.23Z"/><path class="cls-13" d="M136.93,61.42l-1.18,4.51a.39.39,0,0,1-.56.27c-.39-.12-.12-.4-.08-.57.34-1.39.7-2.76,1.07-4.14.07-.25.1-.57.51-.52C136.92,61,137.07,61.08,136.93,61.42Z"/><path class="cls-13" d="M93.36,66.22c-.26,0-.3-.15-.24-.39.4-1.49.79-3,1.18-4.47.09-.34.3-.49.61-.36s.1.39,0,.59c-.35,1.38-.71,2.76-1.07,4.14C93.82,66,93.74,66.28,93.36,66.22Z"/><path class="cls-9" d="M15.59,62.42A1.78,1.78,0,0,1,17,62.18a.72.72,0,0,1,.72,1c-.24.88-.53,1.75-.77,2.63-.11.39-.38.54-.71.41s-.1-.49,0-.71c.12-.54.31-1.07.46-1.6.34-1.19.27-1.26-1-1.2-.07-.06-.1-.12-.08-.18S15.57,62.42,15.59,62.42Z"/><path class="cls-14" d="M89.38,66l.29-.23c.41-.35,1-.49,1.22-1.06.35-.77.37-1.37-.54-1.71l0-.27a1.18,1.18,0,0,1,1.62,0c.49.43.33,1,.17,1.54C91.62,66,90.69,66.53,89.38,66Z"/><path class="cls-15" d="M15.59,62.42l0,.28a2.08,2.08,0,0,0-1,1.53c-.13.58-.32,1.15-.5,1.71-.11.36-.43.33-.69.26s-.12-.3-.07-.47c.28-1,.58-2,.84-3S15.15,62.63,15.59,62.42Z"/><path class="cls-16" d="M104.45,63.81c.12-.27.42-.55,0-.8a.79.79,0,0,0-1.07.16c-.21.22-.42.65-.72.27s.2-.55.43-.75c.65-.57,1.32-.31,2,0s.13.82.12,1.21c0,.71-.68,1.33-.33,2.11.13.27-.1.22-.21.22-.49,0-.71-.26-.79-.7a1,1,0,0,1,.16-.82A3.39,3.39,0,0,1,104.45,63.81Z"/><path class="cls-17" d="M39.8,65.87c.32-1.1.65-2.19,1-3.29.09-.33.22-.63.62-.55s.25.46.17.73c-.25.9-.56,1.8-.78,2.71C40.61,66.09,40.28,66.08,39.8,65.87Z"/><path class="cls-17" d="M18.71,65.91c.31-1.06.62-2.07.91-3.08.12-.42.17-1,.77-.77s.08.61,0,.9c-.22.84-.51,1.65-.71,2.49C19.57,66,19.3,66.07,18.71,65.91Z"/><path class="cls-11" d="M110.67,65.68l0,.28a1.23,1.23,0,0,1-1.62,0c-.47-.39-.32-.94-.2-1.44.42-1.76,1.47-2.44,2.77-1.83l-.28.21c-.41.35-1,.49-1.23,1.07C109.79,64.74,109.76,65.34,110.67,65.68Z"/><path class="cls-12" d="M33.3,62.84c-.69.64-.69,1.56-1,2.37-.14.37-.15,1-.79.74s-.06-.61,0-.88c.19-.85.46-1.68.72-2.51.17-.54.44-.86.88-.17C33.12,62.56,33.41,62.62,33.3,62.84Z"/><path class="cls-13" d="M85.78,65.9a1.32,1.32,0,0,1-1.66.13c-.55-.41-.15-1,0-1.42s.34-1.14.47-1.72c.08-.31.18-.54.53-.48s.2.45.16.65a8.62,8.62,0,0,1-.45,1.6c-.47,1.18.1,1.22,1,.94A.24.24,0,0,1,85.78,65.9Z"/><path class="cls-17" d="M85.78,65.9v-.3c.78-.63.74-1.6,1-2.44.12-.33.1-.94.67-.73s.07.6,0,.9c-.16.72-.38,1.44-.54,2.17S86.41,66.46,85.78,65.9Z"/><path class="cls-17" d="M96.83,62.79c-.28,1.06-.57,2.13-.86,3.19-.07.23-.26.28-.48.24-.4-.06-.22-.32-.17-.52.25-1,.52-1.91.76-2.86.06-.26.16-.44.45-.43S96.89,62.53,96.83,62.79Z"/><path class="cls-18" d="M49.38,63.88l.3.24c0,.38-.45.51-.48.88.2.38.69,0,.89.34l0,.27a.91.91,0,0,1-.17.17,1.79,1.79,0,0,1-2,.08.65.65,0,0,1-.19-.85A1.59,1.59,0,0,1,49.38,63.88Z"/><path class="cls-19" d="M103.72,65.52c.13.78-.49.65-.9.7s-.85,0-1-.46a1,1,0,0,1,.62-1.24c.19-.1.31,0,.41.14C102.9,65.2,103.24,65.43,103.72,65.52Z"/><path class="cls-20" d="M137.24,52.59c0,1.37,0,2.73,0,4.09l-.36-.22c0-1.14,0-2.27,0-3.41C137,52.91,136.83,52.51,137.24,52.59Z"/><path class="cls-21" d="M103.72,65.52a.78.78,0,0,1-1,.11c-.38-.27,0-.56.05-.83.19-.44.6-.47,1-.56s.52.19.48.55l-.42.73h-.12Z"/><path class="cls-22" d="M28.52,66c-.21-.37-.75,0-.95-.45.6,0,1.19.07,1.52-.61a.46.46,0,0,1,.7-.22c.33.26,0,.5-.17.68A1.39,1.39,0,0,1,28.52,66Z"/><path class="cls-23" d="M33.3,62.84c0-.19-.51-.14-.18-.45A9.06,9.06,0,0,1,34.21,62c.2-.06.51-.15.55.2s-.16.38-.43.43S33.64,62.76,33.3,62.84Z"/><path class="cls-24" d="M87.64,61.06c-.6.37-.94,1-1.9.83C86.36,61.45,86.68,60.74,87.64,61.06Z"/><path class="cls-25" d="M42,61.25c0,.07-.2.22-.53.18s-.27-.23-.24-.43.27-.35.51-.33S42.14,60.74,42,61.25Z"/><path class="cls-25" d="M20.62,60.66c.17,0,.41,0,.37.29s-.17.51-.53.48-.34-.12-.32-.36A.42.42,0,0,1,20.62,60.66Z"/><path class="cls-26" d="M121.21,55.66V53.8l.17,0,.32.79C121.23,54.78,121.74,55.45,121.21,55.66Z"/><path class="cls-27" d="M96.87,61c.19,0,.41,0,.35.3s-.13.45-.43.43-.41,0-.34-.29S96.55,60.94,96.87,61Z"/><path class="cls-28" d="M103.75,64.33l-1,.47-.31-.28a2,2,0,0,1,1.27-.42c.07.05.09.1.07.15S103.77,64.33,103.75,64.33Z"/><path class="cls-29" d="M81.44,42.08l.62-.74.38,0-.71,1Z"/><path class="cls-13" d="M103.75,64.33V64.1l.7-.29c0,.33.12.7-.19,1C104.31,64.38,104.11,64.27,103.75,64.33Z"/><path class="cls-30" d="M102.56,54.28c-.42-.23-.2-.63-.25-1h0c.32.25.33.65.45,1A.65.65,0,0,1,102.56,54.28Z"/><path class="cls-1" d="M15.81,41.71c-2.27.16-2.26.17-2-2,.19-1.46.4-2.92.53-4.38.06-.73.37-1,1.06-1a15.69,15.69,0,0,1,2.74.08,2.4,2.4,0,0,1,2.21,2.3A5.41,5.41,0,0,1,19,40.91C18.09,41.93,16.83,41.55,15.81,41.71Z"/><path class="cls-1" d="M120.8,52.58a1,1,0,0,0-1.37-.72c-2.45.46-3.54-.51-3.45-3a13.82,13.82,0,0,1,.66-4,3.28,3.28,0,0,1,1.79-2.11c2-.88,3.47.12,3.28,2.23-.22,2.45-.81,4.86-.69,7.34C121.12,52.59,121,52.62,120.8,52.58Z"/><path class="cls-31" d="M120.8,52.58l.22-.24a.88.88,0,0,1,.17.77C120.9,53,120.87,52.79,120.8,52.58Z"/><path class="cls-1" d="M100.62,51.84c-2.79.34-3.61-.4-3.6-3.23a11.86,11.86,0,0,1,.73-4,2.88,2.88,0,0,1,2.63-2.09c2-.16,2.61.48,2.36,2.45s-.47,3.78-.7,5.68C102.15,51.78,101.37,51.8,100.62,51.84Z"/><path class="cls-32" d="M100.62,51.84c.54-.3,1.38-.23,1.42-1.15l0,1.44c-.08.11-.16.11-.24,0C101.53,51.57,101,52,100.62,51.84Z"/><path class="cls-33" d="M101.83,52.12h.24a1.93,1.93,0,0,1,.23,1.2h0A2.48,2.48,0,0,1,101.83,52.12Z"/><path class="cls-1" d="M70.43,52.14a.79.79,0,0,0-1-.33,5.51,5.51,0,0,1-2.14.09,1.72,1.72,0,0,1-1.64-1.48,11.29,11.29,0,0,1,.54-5.76,3.06,3.06,0,0,1,3.82-2,1.41,1.41,0,0,1,1.22,1.71A75.46,75.46,0,0,0,70.43,52.14Z"/><path class="cls-1" d="M137.24,52.59l-.39.46a1.13,1.13,0,0,0-.55-1,2.35,2.35,0,0,1-1.25-2.28,14.34,14.34,0,0,1,.79-5.51,2.34,2.34,0,0,1,2-1.75,1.87,1.87,0,0,1,2.28,2,14.85,14.85,0,0,1-.61,5.42A2.92,2.92,0,0,1,137.82,52,.88.88,0,0,0,137.24,52.59Z"/><path class="cls-1" d="M33.37,53.28c0-.53-.08-1-.68-1.26a2.15,2.15,0,0,1-1.27-2.12,15.16,15.16,0,0,1,.7-5.39,2.63,2.63,0,0,1,1.67-1.89,1.88,1.88,0,0,1,2.69,1.63,13,13,0,0,1-.8,6.3,2.1,2.1,0,0,1-1.27,1.35,1.31,1.31,0,0,0-.9,1.38C33.46,53.42,33.42,53.43,33.37,53.28Z"/><path class="cls-34" d="M33.37,53.28h.14v2A4.38,4.38,0,0,1,33.37,53.28Z"/><path class="cls-35" d="M56.16,63.33c0,1.25-.8,2.27-1.7,2.24-.53,0-.8-.25-.76-.82.06-1.26.93-2.4,1.79-2.34C56.09,62.45,56.18,62.85,56.16,63.33Z"/><path class="cls-35" d="M45.86,63.25c0,1.18-.74,2.29-1.62,2.31-.49,0-.84-.13-.85-.72,0-1.18.86-2.42,1.72-2.43C45.68,62.4,45.87,62.74,45.86,63.25Z"/><path class="cls-36" d="M133,61.53c.33,3.06.35,2.59-1.46,2.47Z"/><path class="cls-37" d="M80.67,63.37c-.21-.19-.87.33-.71-.38s0-1.65,1.2-1.48c.52.07,1.3-.07,1.22.74S81.5,63.36,80.67,63.37Z"/><path class="cls-38" d="M27.72,63.79c.12-1,.6-1.38,1.32-1.37a.53.53,0,0,1,.49.77C29.15,64.15,28.34,63.25,27.72,63.79Z"/><path class="cls-39" d="M143.49,63.8c-.09,1.13-.87,2-1.68,1.94-.53-.06-.73-.38-.68-.9.1-1.12.9-2.05,1.69-2A.7.7,0,0,1,143.49,63.8Z"/><path class="cls-40" d="M114.62,63.88c.25-.83.65-1.11,1.29-.94a.4.4,0,0,1,.27.56C115.83,64.18,115.22,63.69,114.62,63.88Z"/><path class="cls-41" d="M50.09,65.34a4.61,4.61,0,0,1-.56.2c-.31.07-.69.14-.85-.19s.06-.69.37-.91a4.65,4.65,0,0,1,.63-.32c.3.06.7-.35.85,0C50.73,64.54,50.36,65,50.09,65.34Z"/><path class="cls-42" d="M110.67,65.68c-.47.08-1.08.23-1.13-.44a2.43,2.43,0,0,1,.91-2.19,1.21,1.21,0,0,1,.91-.14C112,64,111.42,64.88,110.67,65.68Z"/><path class="cls-43" d="M90.35,63c.48-.08,1.08-.21,1.12.45a2.4,2.4,0,0,1-.89,2.18,1.26,1.26,0,0,1-.91.14C89,64.59,89.66,63.76,90.35,63Z"/></g></g></svg>